<mxfile host="app.diagrams.net" agent="Mozilla/5.0 (Macintosh; Intel Mac OS X 10_15_7) AppleWebKit/537.36 (KHTML, like Gecko) Chrome/138.0.0.0 Safari/537.36" version="27.1.5">
  <diagram name="第 1 页" id="_yndxhzU7Maw5wJ28-bM">
    <mxGraphModel dx="1234" dy="790" grid="1" gridSize="10" guides="1" tooltips="1" connect="1" arrows="1" fold="1" page="1" pageScale="1" pageWidth="827" pageHeight="1169" math="0" shadow="0">
      <root>
        <mxCell id="0" />
        <mxCell id="1" parent="0" />
        <mxCell id="-CYZlLNWBoOgKk3orSqt-6" value="" style="edgeStyle=orthogonalEdgeStyle;rounded=0;orthogonalLoop=1;jettySize=auto;html=1;entryX=0;entryY=0.5;entryDx=0;entryDy=0;" edge="1" parent="1" source="-CYZlLNWBoOgKk3orSqt-4" target="-CYZlLNWBoOgKk3orSqt-3">
          <mxGeometry relative="1" as="geometry" />
        </mxCell>
        <mxCell id="-CYZlLNWBoOgKk3orSqt-4" value="任务描述" style="text;html=1;align=center;verticalAlign=middle;resizable=0;points=[];autosize=1;strokeColor=none;fillColor=none;" vertex="1" parent="1">
          <mxGeometry x="290" y="315" width="70" height="30" as="geometry" />
        </mxCell>
        <mxCell id="-CYZlLNWBoOgKk3orSqt-5" value="" style="group" vertex="1" connectable="0" parent="1">
          <mxGeometry x="430" y="290" width="140" height="80" as="geometry" />
        </mxCell>
        <mxCell id="-CYZlLNWBoOgKk3orSqt-3" value="" style="rounded=1;whiteSpace=wrap;html=1;dashed=1;dashPattern=8 8;" vertex="1" parent="-CYZlLNWBoOgKk3orSqt-5">
          <mxGeometry width="140" height="80" as="geometry" />
        </mxCell>
        <mxCell id="-CYZlLNWBoOgKk3orSqt-2" value="" style="shape=mxgraph.signs.healthcare.brain;html=1;pointerEvents=1;fillColor=#000000;strokeColor=none;verticalLabelPosition=bottom;verticalAlign=top;align=center;" vertex="1" parent="-CYZlLNWBoOgKk3orSqt-5">
          <mxGeometry x="38.18181818181819" y="18.461538461538463" width="62.36363636363637" height="52.307692307692314" as="geometry" />
        </mxCell>
        <mxCell id="-CYZlLNWBoOgKk3orSqt-8" value="完成总结" style="text;html=1;align=center;verticalAlign=middle;resizable=0;points=[];autosize=1;strokeColor=none;fillColor=none;" vertex="1" parent="1">
          <mxGeometry x="640" y="315" width="70" height="30" as="geometry" />
        </mxCell>
        <mxCell id="-CYZlLNWBoOgKk3orSqt-9" value="" style="edgeStyle=orthogonalEdgeStyle;rounded=0;orthogonalLoop=1;jettySize=auto;html=1;" edge="1" parent="1" source="-CYZlLNWBoOgKk3orSqt-3" target="-CYZlLNWBoOgKk3orSqt-8">
          <mxGeometry relative="1" as="geometry" />
        </mxCell>
        <mxCell id="-CYZlLNWBoOgKk3orSqt-12" value="Step N: ...&lt;div&gt;&lt;br&gt;&lt;/div&gt;&lt;div&gt;&lt;br&gt;&lt;div&gt;Step 4: ...&lt;div&gt;Step 3: ...&lt;/div&gt;&lt;div&gt;Step 2: ...&lt;/div&gt;&lt;div&gt;Step 1: ...&lt;/div&gt;&lt;/div&gt;&lt;/div&gt;" style="rounded=1;whiteSpace=wrap;html=1;dashed=1;" vertex="1" parent="1">
          <mxGeometry x="440" y="120" width="120" height="130" as="geometry" />
        </mxCell>
        <mxCell id="-CYZlLNWBoOgKk3orSqt-13" value="" style="endArrow=classic;html=1;rounded=0;exitX=0.5;exitY=0;exitDx=0;exitDy=0;entryX=0.5;entryY=1;entryDx=0;entryDy=0;" edge="1" parent="1" source="-CYZlLNWBoOgKk3orSqt-3" target="-CYZlLNWBoOgKk3orSqt-12">
          <mxGeometry width="50" height="50" relative="1" as="geometry">
            <mxPoint x="390" y="430" as="sourcePoint" />
            <mxPoint x="440" y="380" as="targetPoint" />
          </mxGeometry>
        </mxCell>
        <mxCell id="-CYZlLNWBoOgKk3orSqt-15" value="" style="endArrow=none;dashed=1;html=1;dashPattern=1 3;strokeWidth=2;rounded=0;" edge="1" parent="1">
          <mxGeometry width="50" height="50" relative="1" as="geometry">
            <mxPoint x="497" y="172" as="sourcePoint" />
            <mxPoint x="497" y="152" as="targetPoint" />
          </mxGeometry>
        </mxCell>
      </root>
    </mxGraphModel>
  </diagram>
</mxfile>
